<?xml version="1.0" encoding="UTF-8" standalone="no"?>
<svg
   xmlns:dc="http://purl.org/dc/elements/1.1/"
   xmlns:cc="http://creativecommons.org/ns#"
   xmlns:rdf="http://www.w3.org/1999/02/22-rdf-syntax-ns#"
   xmlns:svg="http://www.w3.org/2000/svg"
   xmlns="http://www.w3.org/2000/svg"
   xmlns:sodipodi="http://sodipodi.sourceforge.net/DTD/sodipodi-0.dtd"
   xmlns:inkscape="http://www.inkscape.org/namespaces/inkscape"
   height="800"
   width="800"
   version="1.1"
   viewBox="0 0 749.99998 749.99998"
   id="svg44"
   sodipodi:docname="gift.svg"
   inkscape:version="1.0.1 (3bc2e813f5, 2020-09-07)"
   inkscape:export-filename=".\gift.png"
   inkscape:export-xdpi="96"
   inkscape:export-ydpi="96">
  <metadata
     id="metadata50">
    <rdf:RDF>
      <cc:Work
         rdf:about="">
        <dc:format>image/svg+xml</dc:format>
        <dc:type
           rdf:resource="http://purl.org/dc/dcmitype/StillImage" />
        <dc:title></dc:title>
      </cc:Work>
    </rdf:RDF>
  </metadata>
  <defs
     id="defs48" />
  <sodipodi:namedview
     pagecolor="#ffffff"
     bordercolor="#666666"
     borderopacity="1"
     objecttolerance="10"
     gridtolerance="10"
     guidetolerance="10"
     inkscape:pageopacity="0"
     inkscape:pageshadow="2"
     inkscape:window-width="1366"
     inkscape:window-height="705"
     id="namedview46"
     showgrid="false"
     units="px"
     inkscape:zoom="0.2763443"
     inkscape:cx="1195.0759"
     inkscape:cy="572.82787"
     inkscape:window-x="-8"
     inkscape:window-y="-8"
     inkscape:window-maximized="1"
     inkscape:current-layer="svg44" />
  <rect
     style="fill:#ffff00;fill-opacity:1;stroke:none;stroke-width:13.7005;stroke-miterlimit:4;stroke-dasharray:none;stroke-opacity:1"
     id="rect88"
     width="750"
     height="750"
     x="0"
     y="3.5527137e-15"
     ry="0" />
  <path
     id="path24"
     style="fill:#008080;stroke-width:0.908295"
     d="m 226.8643,102.52443 c -0.53576,0.0103 -1.06811,0.0341 -1.59662,0.0715 -11.717,0.81746 -20.25482,5.35923 -33.33427,17.8937 -19.34668,18.43839 -31.69066,37.60302 -37.14951,57.49468 -5.72226,20.98161 0.99881,42.78107 18.98306,61.12863 19.25585,19.71 52.31784,37.09461 76.11517,40.14648 l 0.14968,-0.15633 c 9.44626,1.21712 37.79445,1.57035 45.14255,0.56214 l 5.32371,-0.73012 -15.07801,-8.08285 c -36.6043,-19.61917 -58.33965,-37.51365 -67.39534,-55.58872 -6.7123,-13.44277 -5.07868,-22.6153 6.27502,-35.05894 8.71963,-9.44627 14.07919,-12.26232 23.3438,-12.26232 5.26811,0 8.96586,0.69934 12.35379,2.34336 6.72139,3.26987 26.9751,16.80334 51.49906,34.5151 20.19594,14.54181 20.73259,15.03247 20.07409,18.34774 -0.37604,1.90742 -0.90562,11.62622 -1.18083,21.61747 -0.47233,17.29393 -0.38243,18.33727 2.09721,22.61534 1.42602,2.47057 4.80478,6.16738 7.50242,8.22921 l 4.90625,3.74207 h 29.24628 29.24794 l 4.55867,-3.30466 c 2.50689,-1.81659 5.77664,-5.00587 7.26624,-7.09495 2.61136,-3.63318 2.70007,-4.451 2.55292,-23.07106 -0.0836,-10.62704 -0.33824,-20.8448 -0.56713,-22.70681 -0.45414,-3.17903 0.63539,-4.17845 19.4371,-17.8937 22.7982,-16.71263 43.3171,-30.59933 51.04668,-34.60491 7.53885,-3.91811 18.62893,-3.90132 25.34124,0.0316 6.08557,3.63318 15.66714,13.76142 18.89158,20.07407 3.46968,6.81221 2.85198,16.34938 -1.65316,25.61399 -7.53885,15.35019 -34.06064,36.87678 -67.12258,54.4977 -17.38477,9.23374 -17.38434,9.23227 8.04793,9.44662 28.79294,0.27249 44.41445,-3.26979 67.48514,-15.25929 36.15014,-18.80171 56.78136,-44.96164 56.76955,-72.02883 0,-22.52572 -13.98744,-48.41231 -39.4197,-72.84544 -5.63143,-5.42253 -12.77109,-11.10803 -15.8048,-12.62489 -11.98949,-6.0129 -23.43465,-6.65736 -34.15253,-1.93422 -7.90217,3.45152 -6.99357,2.54273 -39.4197,41.50859 -3.17903,3.81484 -15.71301,19.34722 -27.88417,34.60658 -12.17115,15.16853 -23.5973,29.30968 -25.34123,31.33517 l -3.16994,3.67887 -4.77819,-2.17039 c -4.26899,-1.93921 -7.67474,-2.1704 -31.42666,-2.1704 -23.75191,0 -27.23033,0.23636 -31.42665,2.14378 -5.72226,2.63406 -1.99978,6.17595 -30.52025,-29.42923 -41.23659,-51.40949 -56.94031,-70.22963 -62.85331,-75.20709 -5.62007,-4.70894 -14.34606,-7.57349 -22.3825,-7.41925 z m -95.96805,184.00126 c -13.71525,0 -24.70591,10.99066 -24.70591,24.70592 v 63.12606 c 0,13.71525 10.99066,24.70591 24.70591,24.70591 h 158.95108 v -90.37491 h 89.46684 v 90.37491 h 239.79122 c 13.71525,0 24.70425,-10.99066 24.70425,-24.70591 v -63.12606 c 0,-13.71526 -10.989,-24.70592 -24.70425,-24.70592 h -487.7551 z m 45.41531,118.0778 c -13.71526,0 -24.70591,10.99066 -24.70591,24.70592 v 193.46618 c 0,13.71525 10.99065,24.7059 24.70591,24.7059 H 290.7554 V 424.95033 h 89.46684 v 222.53116 h 192.55977 c 13.71525,0 24.70592,-10.99065 24.70592,-24.7059 V 429.30941 c 0,-13.71526 -10.99067,-24.70592 -24.70592,-24.70592 z"
     sodipodi:nodetypes="scccccccccccsccccccccccccccccccccccccccccccscccsssssccccsssscsssssccccssssss" />
  <text
     style="font-style:normal;font-variant:normal;font-weight:normal;font-stretch:normal;font-size:204.366px;font-family:Candara;-inkscape-font-specification:Candara;letter-spacing:0px;word-spacing:0px;fill:#ffff00;stroke-width:0.908295;"
     xml:space="preserve"
     line-height="125%"
     y="600.84045"
     x="170.08273"
     font-family="'Square721 BT'"
     id="text32"><tspan
       x="170.08273"
       y="600.84045"
       id="tspan30"
       style="font-style:normal;font-variant:normal;font-weight:normal;font-stretch:normal;font-size:204.366px;font-family:Candara;-inkscape-font-specification:Candara;stroke-width:0.908295;fill:#ffff00;">G</tspan></text>
  <text
     style="font-style:normal;font-variant:normal;font-weight:normal;font-stretch:normal;font-size:204.366px;font-family:Candara;-inkscape-font-specification:Candara;letter-spacing:0px;word-spacing:0px;fill:#ffff00;stroke-width:0.908295;"
     font-stretch="condensed"
     line-height="125%"
     y="600.84045"
     x="370.0625"
     font-family="'Square721 Cn BT'"
     xml:space="preserve"
     id="text36"><tspan
       y="600.84045"
       x="370.0625"
       id="tspan34"
       style="font-style:normal;font-variant:normal;font-weight:normal;font-stretch:normal;font-size:204.366px;font-family:Candara;-inkscape-font-specification:Candara;stroke-width:0.908295;fill:#ffff00;">FT</tspan></text>
</svg>
