<svg width="60px" height="60px" version="1.1" viewBox="0 0 750 750" xmlns="http://www.w3.org/2000/svg"><rect x="-1e-5" y="-1e-5" width="750" height="750" ry="0" fill="#ff0" /><path d="m226.86 102.52c-0.53577 0.0103-1.0682 0.034-1.5967 0.0714-11.717 0.81746-20.255 5.3586-33.334 17.893-19.347 18.438-31.69 37.603-37.148 57.495-5.7223 20.982 0.99828 42.782 18.983 61.13 19.256 19.71 52.318 37.094 76.115 40.146l0.15014-0.15563c9.4463 1.2171 37.795 1.5703 45.143 0.56213l5.3229-0.73059-15.079-8.0841c-36.604-19.619-58.338-37.512-67.394-55.587-6.7123-13.443-5.0787-22.616 6.275-35.059 8.7196-9.4463 14.078-12.263 23.342-12.263 5.2681 0 8.9662 0.69973 12.354 2.3438 6.7214 3.2699 26.976 16.804 51.5 34.515 20.196 14.542 20.732 15.032 20.074 18.347-0.37605 1.9074-0.90583 11.626-1.181 21.617-0.47233 17.294-0.38309 18.337 2.0966 22.615 1.426 2.4706 4.8042 6.1669 7.5018 8.2288l4.9072 3.7427h58.495l4.5575-3.3051c2.5069-1.8166 5.7779-5.0063 7.2674-7.0953 2.6114-3.6332 2.6996-4.4512 2.5525-23.071-0.0836-10.627-0.33874-20.845-0.56763-22.707-0.45413-3.179 0.63494-4.1778 19.437-17.893 22.798-16.713 43.318-30.6 51.048-34.605 7.5388-3.9181 18.628-3.9018 25.34 0.0311 6.0856 3.6332 15.668 13.761 18.893 20.074 3.4697 6.8122 2.8517 16.35-1.6534 25.615-7.5388 15.35-34.061 36.877-67.123 54.498-17.385 9.2338-17.385 9.2321 8.0475 9.4464 28.793 0.27248 44.415-3.2687 67.485-15.258 36.15-18.802 56.782-44.963 56.77-72.03 0-22.526-13.989-48.412-39.421-72.845-5.6314-5.4225-12.77-11.108-15.804-12.625-11.989-6.0129-23.435-6.6567-34.153-1.9336-7.9022 3.4515-6.9928 2.5423-39.419 41.508-3.179 3.8148-15.714 19.348-27.885 34.607-12.171 15.169-23.598 29.309-25.342 31.335l-3.1696 3.6786-4.7772-2.1698c-4.269-1.9392-7.6745-2.1716-31.426-2.1716-23.752 0-27.232 0.23674-31.428 2.1442-5.7223 2.634-1.9995 6.1765-30.52-29.429-41.237-51.409-56.94-70.229-62.853-75.207-5.6201-4.7089-14.346-7.5737-22.383-7.4194zm-95.967 184c-13.715 0-24.706 10.991-24.706 24.706v63.126c0 13.715 10.991 24.706 24.706 24.706h158.95v-90.375h89.467v90.375h239.79c13.715 0 24.705-10.991 24.705-24.706v-63.126c0-13.715-10.989-24.706-24.705-24.706h-487.75zm45.416 118.08c-13.715 0-24.706 10.991-24.706 24.706v193.47c0 13.715 10.991 24.705 24.706 24.705h114.44v-222.53h89.467v222.53h192.56c13.715 0 24.706-10.989 24.706-24.705v-193.47c0-13.715-10.991-24.706-24.706-24.706zm76.994 64.418c7.0517 0 13.969 1.0304 20.755 3.0926l-1.7963 9.1809c-11.243-2.7275-19.558-4.0924-24.946-4.0924-17.164 0-30.968 5.49-41.413 16.467-10.378 10.91-15.566 24.614-15.566 41.113 0 20.556 5.3209 35.989 15.965 46.3 10.644 10.311 26.078 15.469 46.302 15.469 3.925 0 7.2859-0.16725 10.08-0.49987 2.7941-0.33263 6.1855-0.93144 10.177-1.7963-0.5322-5.3886-0.79835-14.103-0.79835-26.144 0-3.4593-0.16542-7.8506-0.49804-13.173l-0.3003-8.2818h10.179c-0.2661 2.7941-0.56459 9.5122-0.89721 20.156-0.2661 10.578-0.39917 19.259-0.39917 26.045 0 3.1932 0.0323 5.2558 0.0989 6.1871-6.8521 2.9936-16.465 4.4898-28.839 4.4898-22.02 0-39.15-5.7543-51.39-17.263-12.174-11.575-18.261-27.707-18.261-48.397 0-20.224 6.7523-36.755 20.257-49.594 13.571-12.839 30.669-19.259 51.292-19.259zm139.01 1.7963h71.948l-0.59875 8.1812c-13.305-0.5322-34.094-0.79834-62.368-0.79834 0.2661 14.236 0.39917 32.1 0.39917 53.588 19.159 0 34.561-0.26613 46.203-0.79834v8.5803c-6.1203-0.33264-12.34-0.53223-18.66-0.59876-6.3199-0.0665-15.502-0.0989-27.543-0.0989 0 20.756 0.0665 35.357 0.19958 43.806 0.13305 8.3822 0.43338 14.437 0.89904 18.162h-10.479l0.69946-20.856c0.79831-20.091 1.1975-35.956 1.1975-47.598 0-9.114-0.13307-17.596-0.39917-25.446-0.2661-7.85-0.63296-17.032-1.0986-27.543zm79.532 0h96.396l-0.39917 8.1812-13.971-0.29847c-14.636-0.33262-24.215-0.49987-28.738-0.49987-0.66526 15.567-0.99793 33.564-0.99793 53.987 0 21.754 0.33267 44.638 0.99793 68.654h-10.378c1.0644-27.874 1.5967-50.692 1.5967-68.454 0-9.3801-0.13306-17.963-0.39917-25.746-0.19957-7.7835-0.53224-17.264-0.99792-28.44-5.2555 0-13.038 0.16725-23.35 0.49987l-19.759 0.49805z" fill="#008080" stroke-width=".9083" /></svg>