<svg width="48" height="48" viewBox="0 0 112.2 112.2" xmlns="http://www.w3.org/2000/svg">
	<path d="m56.098 0a56.098 56.098 0 0 0-56.098 56.098 56.098 56.098 0 0 0 56.098 56.098 56.098 56.098 0 0 0 56.098-56.098 56.098 56.098 0 0 0-56.098-56.098zm-21.443 23.968c4.588 0 7.4072 3.0106 7.4962 6.9666 0 3.872-2.9059 6.9712-7.5829 6.9712h-0.08674c-4.498 0-7.414-3.0992-7.414-6.9712 0-3.956 3.0005-6.9666 7.5875-6.9666zm39.526 18.494c8.822 0 15.435 5.7665 15.435 18.152v23.128h-13.408v-21.58c0-5.418-1.9381-9.1168-6.7931-9.1168-3.705 0-5.9033 2.4911-6.8753 4.9031-0.353 0.862-0.4474 2.0597-0.4474 3.2687v22.52h-13.408s0.18-36.542 0-40.325h13.413v5.7111c1.782-2.742 4.9593-6.6607 12.084-6.6607zm-12.084 6.6607c-0.027 0.045-0.06731 0.08939-0.09131 0.13239h0.09131zm-34.23-5.7111h13.404v40.33h-13.404z"/>
</svg>
